<svg id="Layer_1" data-name="Layer 1" xmlns="http://www.w3.org/2000/svg" xmlns:xlink="http://www.w3.org/1999/xlink" viewBox="0 0 56 27"><defs><linearGradient id="linear-gradient" x1="-12.7" y1="25.86" x2="77.46" y2="7.93" gradientUnits="userSpaceOnUse"><stop offset="0" stop-color="#2d86ba"/><stop offset="0.12" stop-color="#2c89bd"/><stop offset="0.18" stop-color="#2d8cbf"/><stop offset="0.25" stop-color="#2a99ce"/><stop offset="0.34" stop-color="#28a2d8"/><stop offset="0.47" stop-color="#26a9e0"/><stop offset="0.47" stop-color="#26a8df"/><stop offset="0.47" stop-color="#2683bb"/><stop offset="0.47" stop-color="#27649d"/><stop offset="0.48" stop-color="#274c86"/><stop offset="0.48" stop-color="#273b76"/><stop offset="0.48" stop-color="#27316c"/><stop offset="0.49" stop-color="#272e69"/><stop offset="0.49" stop-color="#27558e"/><stop offset="0.5" stop-color="#2682ba"/><stop offset="0.51" stop-color="#269ed6"/><stop offset="0.51" stop-color="#26a9e0"/><stop offset="0.52" stop-color="#262261"/><stop offset="0.56" stop-color="#2d5d90"/><stop offset="0.62" stop-color="#2b9acf"/><stop offset="0.67" stop-color="#26a9e0"/></linearGradient><linearGradient id="linear-gradient-2" x1="-25.91" y1="29.2" x2="66.92" y2="-3.89" gradientUnits="userSpaceOnUse"><stop offset="0" stop-color="#272664"/><stop offset="0.09" stop-color="#272a67"/><stop offset="0.14" stop-color="#262261"/><stop offset="0.23" stop-color="#272c68"/><stop offset="0.24" stop-color="#27346e"/><stop offset="0.25" stop-color="#293870"/><stop offset="0.35" stop-color="#2e88bc"/><stop offset="0.46" stop-color="#26a9e0"/><stop offset="0.49" stop-color="#2d83b7"/><stop offset="0.55" stop-color="#2a4178"/><stop offset="0.74" stop-color="#2b4d81"/><stop offset="0.78" stop-color="#26a9e0"/><stop offset="0.81" stop-color="#26a9e0"/></linearGradient><linearGradient id="linear-gradient-3" x1="-23.41" y1="36.2" x2="68.53" y2="3.44" gradientUnits="userSpaceOnUse"><stop offset="0" stop-color="#262261"/><stop offset="0.11" stop-color="#262766"/><stop offset="0.23" stop-color="#263573"/><stop offset="0.37" stop-color="#264d8a"/><stop offset="0.51" stop-color="#266ea9"/><stop offset="0.66" stop-color="#2699d1"/><stop offset="0.71" stop-color="#26a9e0"/></linearGradient></defs><path d="M48.11,26.54V.47h2.61V26.54Z" fill="url(#linear-gradient)"/><path d="M11.54.46h2.2l11,26.08H22l-3.43-8.16H6.66L3.27,26.54H.48ZM18,16.36,12.62,3.47,7.22,16.36Z" fill="url(#linear-gradient-2)"/><path d="M30,4.3l.12.28L30,4.3a9.17,9.17,0,0,0-3,2.38l.15.14L27,6.68A10.57,10.57,0,0,0,26.07,8a11.39,11.39,0,0,0-.9,2.06l.15.06-.15-.06a12,12,0,0,0-.55,3.65c0,.08,0,.16,0,.24l.31,0-.31,0a9.67,9.67,0,0,0,.9,3.93l.53-.32-.53.32a10.3,10.3,0,0,0,1.87,2.73c.18.2.37.39.56.57l.54-.78L28,21.2a8.48,8.48,0,0,0,5.94,2.41,9.57,9.57,0,0,0,4.89-1.47L33.36,16.6H37.1l3.74,3.92a11.07,11.07,0,0,0,2.71-7.65A9.41,9.41,0,0,0,42.69,9a9.17,9.17,0,0,0-5.23-5,9.84,9.84,0,0,0-3.66-.69h-.11v0a7.93,7.93,0,0,0-3.39.84Z" fill="none"/><path d="M43.27,22.58a11.76,11.76,0,0,0,3.8-9.14A12.59,12.59,0,0,0,45.31,7a13.17,13.17,0,0,0-4.75-4.77A12.31,12.31,0,0,0,34.19.46h-.26V3.31h.13A10.42,10.42,0,0,1,37.83,4a9.33,9.33,0,0,1,5.35,5,9.29,9.29,0,0,1,.88,3.86,11,11,0,0,1-2.78,7.65L37.46,16.6H33.63l5.56,5.54a10,10,0,0,1-5,1.48A8.75,8.75,0,0,1,28.1,21.2l-1.73,2.46a13.21,13.21,0,0,0,3,1.83,12.51,12.51,0,0,0,5.12,1.05,11.87,11.87,0,0,0,6.79-2.35l2.13,2.19h3.66Z" fill="url(#linear-gradient-3)"/><path d="M22.41,9.14l2.84.94A10.81,10.81,0,0,1,26.17,8a10.7,10.7,0,0,1,.94-1.34L25,4.71A13,13,0,0,0,22.41,9.14Z" fill="#ea4d9a"/><path d="M29,1.59h0s0,0,0,0L30.15,4.3l.33-.15a8.33,8.33,0,0,1,3.45-.84V.47A11.48,11.48,0,0,0,29,1.59Z" fill="#bd202e"/><path d="M29,1.6a12.2,12.2,0,0,0-3.7,2.79c-.1.1-.19.21-.28.32l2.13,2a9.33,9.33,0,0,1,3-2.38h0L29,1.59Z" fill="#9858a2"/><path d="M26.37,23.66,28.1,21.2q-.29-.27-.57-.57a10.47,10.47,0,0,1-1.91-2.73l-2.57,1.53A12.35,12.35,0,0,0,26.37,23.66Z" fill="#a6c639"/><path d="M22.62,18.46c.13.33.28.65.43,1l2.57-1.53A9.53,9.53,0,0,1,24.7,14l-3,.33A12.5,12.5,0,0,0,22.62,18.46Z" fill="#f7ec33"/><path d="M21.69,13.73c0,.19,0,.38,0,.57l3-.33c0-.08,0-.16,0-.24a11.72,11.72,0,0,1,.56-3.65l-2.84-.94A14.24,14.24,0,0,0,21.69,13.73Z" fill="#ea7451"/><g id="Page-1"><g id="_024---Registered-Trademark" data-name="024---Registered-Trademark"><ellipse id="Oval" cx="53.4" cy="2.8" rx="2.26" ry="2.2" fill="#209ec9"/><ellipse id="Oval-2" data-name="Oval" cx="53.4" cy="2.8" rx="1.8" ry="1.74" fill="#fff"/><path id="Shape" d="M54.43,3.75,54,3a1.1,1.1,0,0,0,.21-.14.72.72,0,0,0,.21-.57.74.74,0,0,0-.76-.66H52.7a.07.07,0,0,0-.08.07V3.79a.07.07,0,0,0,.08.07h.39a.08.08,0,0,0,.08-.07V3h.27l.41.79a.07.07,0,0,0,.07,0h.44a.09.09,0,0,0,.07,0,.11.11,0,0,0,0-.08Zm-.76-1.18h-.5V2h.5a.28.28,0,0,1,.28.27A.28.28,0,0,1,53.67,2.57Z" fill="#209ec9"/></g></g></svg>